<?xml version="1.0" encoding="UTF-8"?>
<svg version="1.1" viewBox="0 0 2000 864" width="499" height="216" xmlns="http://www.w3.org/2000/svg">
<path transform="translate(0)" d="m0 0h2e3v864h-2e3z" fill="#FEFEFE"/>
<path transform="translate(1011,46)" d="m0 0 25 10 18 6 15 4 20 4 20 3 19 1h34l47-2 30-3 1 1 3 75v79l-2 47-3 40-4 40-6 37-8 32-7 19-8 16-9 15-11 13-12 13-11 10-20 15-18 11-26 14-29 12-36 12-21 5-19-4-36-12-25-10-16-8-19-10-16-10-15-11-11-10-8-7-7-7-7-8v-2h-2l-7-11-8-13-7-15-9-27-4-17-5-25-4-33-3-31-2-27-2-50v-86l2-63 1-8h9l36 3 27 1h38l27-2 29-5 20-5 26-9z" fill="#FEFEFE"/>
<path transform="translate(1011,46)" d="m0 0 25 10 18 6 15 4 20 4 20 3 19 1h34l47-2 30-3 1 1 3 75v79l-2 47-3 40-4 40-6 37-8 32-7 19-8 16-9 15-11 13-12 13-11 10-20 15-18 11-26 14-29 12-36 12-21 5-19-4-36-12-25-10-16-8-19-10-16-10-15-11-11-10-8-7-7-7-7-8v-2h-2l-7-11-8-13-7-15-9-27-4-17-5-25-4-33-3-31-2-27-2-50v-86l2-63 1-8h9l36 3 27 1h38l27-2 29-5 20-5 26-9zm-1 27-21 8-27 8-27 5-29 3-20 1h-25l-36-1-18-1-1 1-1 13-2 82v23l3 63 4 45 5 38 4 22 5 21 5 16 6 16 10 17 8 10 9 10 15 15 20 14 11 7 22 12 29 13 36 12 15 4 9-2 25-7 20-7 25-11 23-12 12-8 14-10 13-10 17-17 9-12 8-13 9-20 6-21 6-27 5-33 4-40 2-30 2-47v-61l-1-42v-16l-2-7h-19l-23 1h-39l-33-2-21-3-24-5-27-8-15-6z" fill="#060405"/>
<path transform="translate(983,165)" d="m0 0h11l8 4 3 6v9l-4 7-8 4-22 7-19 9-12 9-12 12-10 15-6 14-5 20-1 10v15l2 18 5 17 6 14 12 17 5 6 8 6 11 7 19 8 23 7 6 5 2 4v10l-4 6-8 6-16-2-21-5-16-6-19-9-17-13-11-11-13-18-7-16-6-19-4-27v-19l2-17 4-16 5-14 11-20 10-13 15-15 13-9 13-8 22-9z" fill="#E9212A"/>
<path transform="translate(1473,647)" d="m0 0h13l12 3 6 4 7 6 2-11h18l-1 91-3 16-5 12-6 7-10 6-13 4-8 1h-18l-11-1-7-3-7-2-1-1 1-8 3-6 8 1 10 3 8 1h13l12-4 7-6 4-8 3-19-5 3-9 6-12 3h-16l-8-2-12-6-7-7-6-10-3-10-1-8v-10l2-11 8-16 5-6 9-6 12-5z" fill="#E9212A"/>
<path transform="translate(267,211)" d="m0 0h28l16 3 12 6 5 4 6 9 4 13v10l-3 12-6 10-8 7-8 4v2l5 2 9 13 6 18 8 30 2 8h-21l-4-9-7-28-4-11-5-8-1-3-9-3-6-1-21-1v64h-20l-1-3v-145l1-1z" fill="#060405"/>
<path transform="translate(1016,605)" d="m0 0h20l1 1v139l-17 1-2-3-1-9-5 3-5 5-14 5h-22l-13-5-8-6-8-11-4-12-1-5v-20l3-12 6-11 6-7 14-8 12-3h15l11 4 11 7v-37z" fill="#E9212A"/>
<path transform="translate(1071,280)" d="m0 0h4l2 10 1 1 39 1 7 4 3 4 1 4v107l-2 8-5 6-9 3-24 5-11 2-23 2h-13l-9-4-1-4v-12l2-5 7-4 9-2 21-2 11-2 5-6 1-3v-60l-4-8-7-3-2 5-1 3-9-1-51-16-6-4 1-4 5-4 49-18z" fill="#E9212A"/>
<path transform="translate(677,227)" d="m0 0h19l12 5 10 9 7 10 5 13 2 14 1 4v14l-4 18-8 16-7 8-7 5-11 4-6 1h-10l-13-4-6-4-9-8-8-14-4-13-2-12v-11l4-19 5-12 7-11 11-9 7-3z" fill="#FEFEFE"/>
<path transform="translate(1331,227)" d="m0 0h14l13 4 9 7 7 8 6 12 4 18v24l-3 13-5 12-7 9-8 7-10 5-4 1h-19l-11-4-11-9-7-10-6-15-2-10v-20l3-15 4-11 6-10 9-9 10-5z" fill="#FEFEFE"/>
<path transform="translate(524,211)" d="m0 0h34l14 3 12 6 8 7 7 14 2 11-1 15-4 12-6 8-8 7-10 5-9 3-16 2-18-1-1 59h-20l-1-2v-146l1-1z" fill="#060405"/>
<path transform="translate(551,647)" d="m0 0h19l14 4 9 5 8 7 6 9 4 11 1 6v15l-3 13-6 11-6 7-9 6-10 4-9 2h-23l-13-4-9-6-7-7-7-14-2-6-1-11 2-16 5-12 7-10 13-9 12-4z" fill="#E9212A"/>
<path transform="translate(1786,647)" d="m0 0h18l14 4 9 5 5 4 6 8 5 10 2 8v22l-3 10-4 8-9 10-11 7-16 4h-23l-12-4-8-5-6-5-7-11-4-13v-23l4-12 7-11 8-7 12-6z" fill="#E9212A"/>
<path transform="translate(1331,209)" d="m0 0h17l16 4 14 7 10 9 9 14 6 14 3 13 1 6v17l-3 19-6 17-7 11-9 10-11 7-9 4-10 3-7 1h-16l-16-3-14-7-10-9-7-8-7-14-5-16-1-8v-23l3-15 5-15 8-13 7-8 13-9 12-5zm0 18-13 4-8 6-7 7-8 16-3 12-1 7v20l4 16 7 14 7 8 10 7 9 3h19l11-4 9-7 7-8 5-10 4-12 1-6v-24l-4-18-6-12-10-11-8-5-11-3z" fill="#E9212A"/>
<path transform="translate(675,210)" d="m0 0h23l16 4 11 6 10 9 6 7 8 16 3 10 3 21v9l-3 20-6 16-7 12-8 9-10 7-12 5-11 3-16 1-15-2-14-5-13-9-9-10-8-15-5-16-2-21 2-18 6-20 7-12 11-12 10-7 10-5zm2 17-10 3-8 6-5 4-7 11-5 12-4 19v11l3 16 5 13 7 11 10 9 12 5 5 1h10l12-3 8-4 9-8 8-14 4-12 2-14v-13l-1-5-2-11-5-13-7-10-7-7-12-6-3-1z" fill="#060405"/>
<path transform="translate(163,210)" d="m0 0h21l15 2 12 4 1 4-4 14-3 1-13-4-15-2h-12l-14 3-14 7-8 7-8 13-5 14-1 8v15l4 15 7 14 7 8 9 6 10 4 10 2h19l12-2 2-1 1-42h-29l-1-1v-10l1-6h50v67l-2 6-10 4-22 4h-26l-14-3-14-5-12-7-8-8-8-12-6-17-3-16v-15l3-16 5-14 8-13 6-7 13-10 13-6 14-4z" fill="#E9212A"/>
<path transform="translate(142,611)" d="m0 0h24l4 9 11 30 13 34 17 45 5 15-3 2h-12l-7-1-3-7-12-33-4-1-46 1-4 9-7 20-4 10-2 2-8-1-3 1h-7l-1-2 5-16 19-51 17-44 7-21z" fill="#E9212A"/>
<path transform="translate(365,212)" d="m0 0h19l1 32 1 68 3 14 5 10 8 7 8 3 14 1 8-2 8-4 6-7 5-12 2-10 1-99 1-1h20v96l-2 14-5 15-7 11-9 8-12 6-17 3-18-1-13-4-9-6-8-8-7-14-4-23v-96z" fill="#060405"/>
<path transform="translate(1834,212)" d="m0 0h81v17l-60 1v45l57 1v17h-58l1 51 63 1 1 5-1 12h-84z" fill="#060405"/>
<path transform="translate(1365,647)" d="m0 0h16l16 5 8 6 6 9 4 11 2 10v11l-1 2-4 1h-69l3 12 6 9 7 4 8 3h27l13-3 2 3 1 11-2 2-11 3-8 1h-27l-12-3-8-4-10-9-5-8-4-13-1-6v-9l2-13 8-16 7-8 11-7 9-3z" fill="#E9212A"/>
<path transform="translate(1102,647)" d="m0 0h15l12 3 9 5 8 9 5 11 2 10v16l-6 1-66 1 1 8 4 8 4 5 11 6 4 1h17l17-2h6l1 1v12l-9 3-11 2-18 1-15-2-12-5-9-6-7-10-4-10-2-10v-15l4-13 8-15 8-7 8-4 9-3z" fill="#E9212A"/>
<path transform="translate(1450,212)" d="m0 0h80l1 1v15l-1 1-60 1v45l57 1 1 3-1 14-57 1v50l62 1 1 1 1 10-1 6h-83z" fill="#060405"/>
<path transform="translate(737,647)" d="m0 0h18l13 4 8 6 6 7 5 10 2 7 1 9v10l-7 2h-66l2 11 6 10 8 5 5 2 6 1h13l16-2 7-1 2 2 2 11-1 2-13 3-9 1h-25l-15-4-10-6-7-8-5-10-3-11v-18l3-12 5-10 8-10 11-7 9-3z" fill="#E9212A"/>
<path transform="translate(355,647)" d="m0 0h16l14 4 8 6 7 8 5 11 2 12v13l-9 1h-64l2 11 6 9 6 5 11 4h15l23-3 3 6v8l-7 2-6 2-11 1h-23l-15-4-11-7-7-9-5-11-2-7v-19l3-13 6-11 11-11 12-6z" fill="#E9212A"/>
<path transform="translate(1615,209)" d="m0 0 17 1 14 3 7 3 1 5-4 12-6-1-11-3-7-1h-12l-9 3-6 4-4 8-1 6 2 9 7 8 11 6 25 12 12 9 6 9 3 8 1 14-2 11-4 9-7 8-10 7-12 4-5 1h-21l-18-3-11-4-1-7 3-10 4-2 15 6 8 2h19l9-4 6-5 5-10v-9l-4-9-4-5-12-7-20-9-10-6-8-7-5-7-4-14 1-12 4-11 7-9 8-6 8-4z" fill="#060405"/>
<path transform="translate(1258,610)" d="m0 0h19l14 3 8 3-1 6-4 9-7-1-16-3h-13l-10 4-5 5-3 7 1 9 3 5 10 6 24 10 11 6 9 8 5 10 2 7v11l-4 11-7 9-10 7-12 4-6 1h-25l-21-5-4-2v-7l3-9 4-1 13 5 11 2h16l11-4 5-5 3-5v-12l-4-7-8-6-23-10-9-4-9-6-8-9-3-12v-9l3-10 6-8 6-5 13-6z" fill="#E9212A"/>
<path transform="translate(1559,649)" d="m0 0h21l1 55 3 15 4 7 8 4h13l9-4 5-4 5-10 1-58 1-5h19l1 13v45l1 37-7 2-11-1-1-1-1-11-8 7-12 6-16 2-14-2-8-4-8-9-4-11-1-5-1-17z" fill="#E9212A"/>
<path transform="translate(1688,212)" d="m0 0h111v16l-1 1-43 1-1 132h-20l-1-115v-17l-45-1z" fill="#060405"/>
<path transform="translate(839,647)" d="m0 0h13l15 3 3 3-1 10-1 3-8-1-11-2h-10l-6 3h-2l-2 4v7l5 5 15 7 12 5 8 7 5 9 1 5v9l-4 9-5 6-12 6-10 2h-21l-14-3-3-3v-8l2-5 6-1 12 4h18l7-4 2-3 1-7-3-5-16-8-19-10-7-9-1-3v-12l4-9 8-8 9-4z" fill="#E9212A"/>
<path transform="translate(455,647)" d="m0 0h15l13 3 4 2 1 4-3 10-3 1-9-3-7-1h-10l-8 4-2 4v6l7 6 15 7 14 7 7 8 3 7v12l-3 8-4 5-8 6-9 3-7 1h-21l-15-4-3-3 3-12 6-1 14 4h15l8-4 2-2v-10l-5-5-28-14-8-7-4-8v-9l4-11 4-5 10-6z" fill="#E9212A"/>
<path transform="translate(261,647)" d="m0 0h14l17 4 1 1v6l-5 9-9-3-7-1h-11l-7 3-3 6 1 6 5 5 26 11 10 9 3 5 1 4v13l-4 9-9 8-11 4-5 1h-24l-14-4-3-2 2-9 2-5 8 1 10 3 14 1 8-3 4-5v-9l-8-7-12-5-12-6-8-7-4-7v-15l5-10 8-6 11-4z" fill="#E9212A"/>
<path transform="translate(1894,647)" d="m0 0h14l17 4 2 2-1 6-3 8-5-1-10-3h-13l-8 4-2 4 1 7 6 5 13 6 12 5 9 8 4 8 1 3v11l-4 9-5 6-12 6-10 2h-21l-14-3-3-3 1-10 2-4 8 1 8 3 15 1 7-2 5-4 2-4-1-7-5-5-12-6-14-6-10-9-3-4-1-4v-9l3-10 6-7 9-5z" fill="#E9212A"/>
<path transform="translate(554,662)" d="m0 0h12l9 3 6 5 7 12 2 6v18l-5 12-4 6-7 6-7 2h-16l-10-5-6-7-4-8-2-9v-13l3-11 7-9 8-6z" fill="#FEFEFE"/>
<path transform="translate(1787,662)" d="m0 0h12l9 3 8 7 6 10 2 8v13l-4 13-6 9-10 6-4 1h-15l-10-5-6-7-5-10-2-10 1-12 5-12 6-8 6-4z" fill="#FEFEFE"/>
<path transform="translate(982,663)" d="m0 0h14l10 5 7 9 3 10v19l-2 8-6 9-8 7-8 2h-10l-11-4-8-9-4-10-1-5v-12l3-11 6-10 7-6z" fill="#FEFEFE"/>
<path transform="translate(959,277)" d="m0 0h16l10 5 6 8 4 8 1 6v11l-4 15-3 4h-2l-1 3-12 6-5 1h-7l-9-3-6-4-6-7-3-7-1-5v-14l4-13 9-10z" fill="#E9212A"/>
<path transform="translate(1475,663)" d="m0 0h14l8 3 8 7 4 8 1 4v20l-3 11-7 9-9 4-5 1h-9l-11-4-7-6-5-11-1-3v-18l3-9 7-9 5-4z" fill="#FEFEFE"/>
<path transform="translate(531,228)" d="m0 0h24l11 3 8 6 5 10 1 5v9l-3 10-4 6-9 6-10 3-9 1h-10l-7-2v-54z" fill="#FEFEFE"/>
<path transform="translate(1037,160)" d="m0 0h16l18 2 36 8 6 2 1 2v11l-4 11-6 6-20-4-5-2-7-1-25-1-10-2-9-8-2-4v-10l3-5 5-4z" fill="#E9212A"/>
<path transform="translate(1724,647)" d="m0 0h9l1 1v14l-3 3-14 3-7 4-6 9-2 6-1 40-1 19-19-1-1-1-1-74v-21l17-1 1 1 2 14 8-10 6-4z" fill="#E9212A"/>
<path transform="translate(678,647)" d="m0 0h9l1 3v14l-13 2-9 5-6 9-4 9-1 7-1 44-1 5-18 1-1-2v-95l16-1 1 1 1 15 12-12 8-4z" fill="#E9212A"/>
<path transform="translate(276,227)" d="m0 0h13l11 2 10 6 4 5 3 10v10l-4 9-5 5-8 5-7 2-10 1h-17l-1-1v-52l1-1z" fill="#FEFEFE"/>
<path transform="translate(966,287)" d="m0 0 9 2 6 8 2 6v14l-5 10-6 5-2 1h-8l-6-4-5-7-1-3v-17l5-10 6-4z" fill="#FEFEFE"/>
<path transform="translate(153,632)" d="m0 0 2 1 11 33 8 21v2h-41l3-10 8-20 7-22z" fill="#FEFEFE"/>
<path transform="translate(357,661)" d="m0 0h9l9 3 5 5 5 8 2 9-1 1h-52v-6l6-10 8-7z" fill="#FEFEFE"/>
<path transform="translate(741,661)" d="m0 0h8l9 3 6 5 4 7 2 11h-53l1-7 3-6 7-8 5-3z" fill="#FEFEFE"/>
<path transform="translate(1367,661)" d="m0 0h9l9 3 5 5 4 6 2 6v6h-51l-1-5 5-10 7-7 6-3z" fill="#FEFEFE"/>
<path transform="translate(1105,661)" d="m0 0h7l10 3 7 8 4 10v5h-52l-1-5 7-11 9-8z" fill="#FEFEFE"/>
<path transform="translate(1182,856)" d="m0 0h86v3l-9 1-290-1-141-1v-1z"/>
</svg>
