<?xml version="1.0" encoding="UTF-8"?>
<svg version="1.1" viewBox="0 0 2000 864" width="499" height="216" xmlns="http://www.w3.org/2000/svg">
<path transform="translate(0)" d="m0 0h2e3v864h-2e3z" fill="#FDFDFD"/>
<path transform="translate(1011,46)" d="m0 0 5 2 26 10 19 6 22 5 28 4 22 1h26l48-2 32-3 1 1 3 69v92l-2 47-5 56-3 26-5 28-6 25-8 24-7 15-9 15-10 13-14 15-7 7-14 11-15 11-21 12-19 10-28 12-33 11-21 5-4 1-23-5-36-12-28-12-23-12-17-10-18-13-15-13-13-13-9-11-9-13-8-14-6-15-6-18-6-25-4-22-4-32-4-41-2-40-1-27v-81l2-67 1-9 2-1 30 3 41 2h31l31-2 31-5 26-7 27-10z" fill="#FDFDFD"/>
<path transform="translate(1011,46)" d="m0 0 5 2 26 10 19 6 22 5 28 4 22 1h26l48-2 32-3 1 1 3 69v92l-2 47-5 56-3 26-5 28-6 25-8 24-7 15-9 15-10 13-14 15-7 7-14 11-15 11-21 12-19 10-28 12-33 11-21 5-4 1-23-5-36-12-28-12-23-12-17-10-18-13-15-13-13-13-9-11-9-13-8-14-6-15-6-18-6-25-4-22-4-32-4-41-2-40-1-27v-81l2-67 1-9 2-1 30 3 41 2h31l31-2 31-5 26-7 27-10zm-1 27-15 6-25 8-22 5-26 4-28 2h-45l-29-1h-14l-1 19-1 35-1 59 2 41 1 24 5 56 6 42 8 34 7 21 8 16 9 14 11 13 14 14 13 10 21 14 24 13 28 12 25 9 23 6 3 1 29-8 18-6 24-10 19-9 14-8 13-9 14-10 9-7v-2l4-2 12-12 12-16 10-18 9-25 8-35 6-43 3-32 2-27 1-23v-130l-1-20-1-1h-15l-26 1h-45l-32-2-33-6-29-8-19-7-4-2z" fill="#060405"/>
<path transform="translate(983,165)" d="m0 0h11l8 4 3 6v9l-4 7-10 5-17 5-18 8-11 7-10 9-10 11-8 13-7 19-3 13-1 13v12l2 18 5 17 7 16 7 10 8 10 12 9 10 6 20 8 20 6 5 4 3 6v9l-4 6-8 6-16-2-22-5-15-6-11-5-11-6-14-11-11-11-9-12-6-10-7-18-4-13-3-17-1-9v-20l2-17 4-16 4-12 10-19 12-16 15-15 14-10 12-7 22-9z" fill="#E9212A"/>
<path transform="translate(264,211)" d="m0 0h33l14 3 12 6 6 5 6 10 3 10v12l-3 11-6 10-8 7-8 4-1 2 6 2v2h2l8 13 6 19 7 26 2 9-7 1-15-1-5-16-6-24-5-12-5-6-9-4-6-1h-19l-1 63-6 1-14-1-1-1v-147l7-2z" fill="#060405"/>
<path transform="translate(1472,647)" d="m0 0h15l13 4 8 7 3 2 2-11 17-1 1 1v20l-1 71-3 17-7 14-8 7-10 5-17 3h-18l-11-1-7-3-8-2v-7l4-8 8 1 5 2 16 2h9l13-4 7-6 4-9 2-10 1-8-5 3-9 6-12 3h-17l-11-3-9-6-8-9-5-10-3-14v-11l3-14 8-14 4-5 9-6 12-5z" fill="#E9212A"/>
<path transform="translate(1016,605)" d="m0 0 21 1v138l-1 1-16 1-2-3-1-9-5 3-6 5-13 5h-22l-13-5-8-6-8-11-4-13-1-4v-20l3-12 6-11 7-8 15-8 10-2h15l11 4 10 6 1-5v-32z" fill="#E9212A"/>
<path transform="translate(1071,280)" d="m0 0h4l2 10 1 1 39 1 6 3 4 6 1 8v102l-2 8-5 6-8 3-14 3-21 4-33 3-11-4-3-5v-13l2-4h2l1-3 12-3 22-2 11-2 5-6 1-3v-60l-3-7-4-3-4 1-3 6-9-1-29-9-16-5-10-4-2-2 1-4 5-4 24-9 25-9z" fill="#E9212A"/>
<path transform="translate(677,227)" d="m0 0h17l12 4 9 7 7 8 7 15 4 20v13l-4 20-8 16-5 6-8 6-9 4-10 2-14-1-10-4-11-9-6-9-6-13-3-14-1-14 3-17 4-12 6-11 10-10 9-5z" fill="#FDFDFD"/>
<path transform="translate(1331,227)" d="m0 0h14l13 4 9 7 7 8 6 12 3 12 1 7v23l-3 13-5 12-7 9-8 7-8 4-6 2h-18l-11-4-11-8-7-9-7-17-2-9v-23l4-17 8-16 10-10 10-5z" fill="#FDFDFD"/>
<path transform="translate(522,211)" d="m0 0h37l16 4 11 6 8 9 5 10 2 10v11l-2 10-4 9-4 6-7 7-14 7-12 3-9 1h-20l-1 58h-21v-148l7-2z" fill="#060405"/>
<path transform="translate(551,647)" d="m0 0h19l14 4 8 4 9 8 6 10 4 10 1 6v15l-2 10-7 14-4 5h-2v2l-9 6-10 4-9 2h-24l-12-4-8-5-9-9-6-13-2-6-1-14 2-13 4-11 7-9 9-8 10-5z" fill="#E9212A"/>
<path transform="translate(1785,647)" d="m0 0h19l12 3 10 5 8 7 7 11 4 13v22l-3 10-4 8-9 10-11 7-16 4-16 1-14-3-12-6-7-6-7-11-4-13-1-15 2-12 5-12 7-9 11-8 10-4z" fill="#E9212A"/>
<path transform="translate(1331,209)" d="m0 0h18l13 3 16 8 9 8 9 13 7 16 3 12 1 7v17l-2 16-6 18-8 13-9 10-14 9-16 5-7 1h-17l-15-3-14-7-11-9-7-10-6-12-5-16-1-7v-25l4-18 5-13 7-11 8-9 14-9 13-5zm0 18-13 4-8 6-7 7-8 16-4 17v23l3 12 7 16 7 8 10 7 11 4h18l11-4 9-7 7-8 5-10 4-12 1-6v-23l-3-16-6-13-6-8-9-8-10-4-5-1z" fill="#E9212A"/>
<path transform="translate(673,210)" d="m0 0h26l12 3 16 8 9 8 7 10 6 12 4 15 2 17-1 18-4 18-4 9-8 14-8 8-11 7-12 5-16 3h-12l-16-3-12-5-11-8-9-10-6-10-6-16-2-13v-24l2-12 5-15 6-11 11-12 10-8 14-6zm4 17-11 4-8 6-7 7-8 16-4 17-1 13 3 19 5 12 5 9 6 7 10 7 8 3 14 1 13-3 9-5 7-6 8-13 4-11 3-16v-13l-4-20-8-16-9-10-8-5-10-3z" fill="#060405"/>
<path transform="translate(163,210)" d="m0 0h21l15 2 12 4 1 3-4 15-3 1-13-4-15-2h-12l-14 3-14 7-7 6-6 9-5 10-3 9-1 7v17l4 14 7 14 7 8 9 6 10 4 10 2h19l12-2 2-1v-41l-29-1v-11l1-6h49l1 2v65l-2 6-10 4-21 4h-28l-17-4-18-8-12-11-8-12-6-17-3-16v-16l3-16 6-15 7-11 6-7 13-10 13-6 14-4z" fill="#E9212A"/>
<path transform="translate(142,611)" d="m0 0h24l4 9 9 25 12 31 17 45 7 19v5l-7 1-14-1-3-7-12-33-2-1-48 1-4 10-8 22-4 8-4 1-6-1-2 1h-7l-1-2 5-16 11-30 22-57 9-25z" fill="#E9212A"/>
<path transform="translate(365,212)" d="m0 0h19l1 1 1 98 3 14 6 12 8 6 8 3 11 1 10-2 10-6 6-9 4-13 1-7 1-97 1-1h20v97l-2 14-4 12-7 12-8 8-14 7-16 3h-12l-15-3-12-6-7-6-7-11-4-11-3-19v-96z" fill="#060405"/>
<path transform="translate(1834,212)" d="m0 0h81l1 3-1 14-61 1v45l58 1 1 3-1 14h-58l1 51 63 1 1 1v10l-1 6h-84l-1-149z" fill="#060405"/>
<path transform="translate(1450,212)" d="m0 0h81v17l-48 1-13 1-1 44 59 1v15l-1 2-57 1v51h62l2 2v15h-84z" fill="#060405"/>
<path transform="translate(1365,647)" d="m0 0h16l14 4 6 4 5 5 5 8 4 10 2 10v11l-1 2-4 1h-69l3 12 6 9 11 6 5 1h25l14-3 2 3 1 11-2 2-11 3-8 1h-27l-13-3-11-7-8-9-5-10-3-14v-9l2-13 8-16 7-8 11-7 9-3z" fill="#E9212A"/>
<path transform="translate(1102,647)" d="m0 0h15l12 3 9 5 7 8 6 12 2 10v16l-6 1-66 1 1 8 4 8 5 5 10 6 4 1h16l17-2h7l1 1v12l-9 3-11 2-18 1-15-2-12-5-9-6-7-10-5-14-1-6v-15l4-13 7-13 6-7 9-5 11-4z" fill="#E9212A"/>
<path transform="translate(737,647)" d="m0 0h18l13 4 8 6 6 7 5 10 2 7 1 9v10l-7 2h-66l2 11 6 10 8 5 12 3 23-1 12-2 2 2 2 11-1 2-13 3-9 1h-25l-12-3-12-6-8-9-5-10-3-11v-18l3-12 5-10 8-10 10-6 10-4z" fill="#E9212A"/>
<path transform="translate(354,647)" d="m0 0h18l13 4 11 8 8 14 3 14v14l-9 1h-64l2 11 6 9 6 5 11 4h14l17-2 7-1 3 6v8l-6 2-12 3h-30l-14-4-11-7-7-9-5-10-2-8v-19l3-13 6-11 6-7 10-7 11-4z" fill="#E9212A"/>
<path transform="translate(1613,209)" d="m0 0h11l20 3 10 4-1 9-3 8-6-1-12-3-7-1h-10l-10 3-8 7-2 5v12l5 8 8 6 33 16 11 9 5 7 3 9 1 7v9l-3 12-4 8-4 5-10 7-13 5-5 1h-24l-17-3-10-4-1-2 1-10 3-6 3-1 15 6 9 2h17l10-4 6-5 4-7 1-4v-7l-4-10-7-7-16-8-18-8-10-8-7-8-4-11-1-13 4-13 6-9 8-7 10-5z" fill="#060405"/>
<path transform="translate(1258,610)" d="m0 0h19l15 3 6 3 1 4-5 11-7-1-16-3h-13l-10 4-4 2-2 4-2 6 1 9 6 7 14 7 19 8 9 5 9 8 5 10 2 7v11l-4 11-7 9-10 7-12 4-6 1h-25l-21-5-4-2v-7l3-9 4-1 14 5 11 2h14l10-3 4-3h2l2-4 2-5v-11l-4-7-8-6-23-10-9-4-9-6-8-9-3-12v-9l2-8 6-9 7-6 13-6z" fill="#E9212A"/>
<path transform="translate(1688,212)" d="m0 0h111v17h-44v132l-1 1h-20l-1-131-1-1-45-1z" fill="#060405"/>
<path transform="translate(1578,648)" d="m0 0 2 1 1 55 3 14 4 8 5 3 4 1h11l9-3 6-5 5-10 1-19v-36l1-8h19l1 61 1 34-4 2-14-1-1-1-1-9h-3l-8 7-9 4-12 2-13-1-10-3-9-8-5-10-2-9-1-12v-56z" fill="#E9212A"/>
<path transform="translate(838,647)" d="m0 0h14l14 3 4 4-2 12h-6l-7-2-7-1h-9l-6 3h-2l-2 4v7l5 5 13 6 12 5 8 6 6 9 2 7v9l-4 9-5 6-12 6-10 2h-21l-14-3-3-3v-8l2-5 7-1 11 4h18l8-5 1-2v-10l-9-6-22-10-9-7-4-6-1-3v-12l4-9 4-5 10-6z" fill="#E9212A"/>
<path transform="translate(260,647)" d="m0 0h15l16 4 2 2-1 7-4 7-16-4h-11l-8 4-2 5 1 6 5 5 26 11 10 9 3 5 1 4v13l-4 9-9 8-11 4-5 1h-24l-14-4-3-2 2-9 2-5h6l12 4 13 1 9-3 4-5v-9l-8-7-19-8-10-7-6-8-2-10 2-10 5-8 9-6 9-3z" fill="#E9212A"/>
<path transform="translate(455,647)" d="m0 0h15l13 3 4 2 1 4-3 10-4 1-8-3-7-1h-10l-8 4-2 4v6l7 6 18 8 11 6 7 8 3 7v12l-3 8-4 5-8 6-9 3-7 1h-21l-15-4-3-3 3-12 7-1 13 4h15l8-4 2-3v-9l-5-5-10-5-17-8-10-9-3-7v-9l3-9 5-7 10-6z" fill="#E9212A"/>
<path transform="translate(1894,647)" d="m0 0h14l16 4 3 3-3 12-4 1-7-3-5-1h-13l-8 4-2 4 1 7 6 5 13 6 10 4 9 7 5 7 2 6v11l-4 9-5 6-9 5-13 3h-21l-14-3-3-3 1-10 2-4 8 1 9 3 13 1 9-3 5-5 1-7-3-5-15-8-14-6-10-9-3-4-1-3v-11l3-9 6-7 11-6z" fill="#E9212A"/>
<path transform="translate(554,662)" d="m0 0h12l9 3 5 4 7 11 3 8v18l-5 12-4 6-6 5-8 3h-16l-10-5-7-9-4-10-1-4v-14l3-11 7-9 8-6z" fill="#FDFDFD"/>
<path transform="translate(1788,662)" d="m0 0h11l9 3 8 7 5 8 3 10v13l-4 13-6 9-10 6-5 1h-14l-10-5-6-7-5-10-2-13 2-12 6-12 4-5 9-5z" fill="#FDFDFD"/>
<path transform="translate(983,663)" d="m0 0h13l10 5 7 9 3 10v18l-2 10-8 10-6 5-9 2h-8l-10-3-8-7-5-10-2-7v-13l3-11 6-10 7-6z" fill="#FDFDFD"/>
<path transform="translate(958,277)" d="m0 0h17l10 5 7 9 3 7 1 6v11l-4 15-5 5-7 6-5 2-6 1h-8l-8-3-6-4-6-7-4-11v-15l4-13 9-10z" fill="#E9212A"/>
<path transform="translate(1476,663)" d="m0 0h13l8 3 8 7 4 8 1 5v19l-3 10-6 9-7 4-9 2h-7l-10-3-7-5-6-10-2-7v-17l3-9 7-9 5-4z" fill="#FDFDFD"/>
<path transform="translate(1037,160)" d="m0 0h17l18 2 39 9 3 3v11l-4 11-5 6-11-2-22-5-27-1-9-3-8-6-2-5v-10l3-5 5-4z" fill="#E9212A"/>
<path transform="translate(532,228)" d="m0 0h22l12 3 7 5 5 8 1 3v19l-5 10-10 7-11 3-14 1-9-1-2-2v-47l1-8z" fill="#FDFDFD"/>
<path transform="translate(1723,647)" d="m0 0h10l1 1v13l-1 3-16 4-7 4-6 9-2 6-1 7-1 52-19-1-1-1-1-71v-24l17-1 2 5 1 10 7-9 7-5z" fill="#E9212A"/>
<path transform="translate(677,647)" d="m0 0h10l1 3v14l-13 2-9 5-6 9-4 9-1 7-1 45-1 4-18 1-1-1v-95l1-1 15-1 1 1 1 15 12-12 8-4z" fill="#E9212A"/>
<path transform="translate(279,227)" d="m0 0h9l11 2 10 5 6 8 2 9v8l-3 8-3 5-10 6-10 3-10 1h-15l-1-1v-52l1-1z" fill="#FDFDFD"/>
<path transform="translate(966,287)" d="m0 0 9 2 5 6 3 8v14l-5 10-6 5-2 1h-8l-6-4-5-8-1-2v-16l3-8 5-5 3-2z" fill="#FDFDFD"/>
<path transform="translate(153,632)" d="m0 0 3 3 6 20 11 29 1 5h-40l-1-2 11-28 7-22z" fill="#FDFDFD"/>
<path transform="translate(357,661)" d="m0 0h9l9 3 5 5 5 8 1 3v7h-52l1-8 6-9 7-6z" fill="#FDFDFD"/>
<path transform="translate(741,661)" d="m0 0h8l11 4 5 6 4 9 1 7h-53l1-7 6-10 7-6z" fill="#FDFDFD"/>
<path transform="translate(1367,661)" d="m0 0h9l9 3 5 5 4 6 2 6v6h-51l-1-5 5-10 7-7z" fill="#FDFDFD"/>
<path transform="translate(1105,661)" d="m0 0h7l10 3 7 8 4 10v5h-52l-1-5 7-11 8-7z" fill="#FDFDFD"/>
</svg>
